<?xml version="1.0" encoding="iso-8859-1"?>
<!-- Generator: Adobe Illustrator 19.0.0, SVG Export Plug-In . SVG Version: 6.00 Build 0)  -->
<svg version="1.1" id="Capa_1" xmlns="http://www.w3.org/2000/svg" xmlns:xlink="http://www.w3.org/1999/xlink" x="0px" y="0px"
	 viewBox="0 0 364 364" style="enable-background:new 0 0 364 364;" xml:space="preserve">
<g>
	<g>
		<path d="M315.2,257.2h-17.6v-36.8c0-4.8-3.2-8-8-8s-8,3.2-8,8v44.8c0,4.8,3.2,8,8,8h25.6c4.8,0,8-3.2,8-8S319.2,257.2,315.2,257.2
			z"/>
		<path d="M343.2,214V67.6h0c0-8.8-7.2-16-16-16h-30.4v-20c0-4.8-3.2-8-8-8s-8,3.2-8,8v20h-42.4v-20c0-4.8-3.2-8-8-8s-8,3.2-8,8v20
			H180v-20c0-4.8-3.2-8-8-8c-4.8,0-8,3.2-8,8v20h-42.4v-20c0-4.8-3.2-8-8-8s-8,3.2-8,8v20h-44v-20c0-4.8-3.2-8-8-8s-8,3.2-8,8v20H16
			c-8.8,0-16,7.2-16,16v221.6c0,8.8,7.2,16,16,16h209.6c13.6,20.8,36.8,35.2,63.2,35.2c41.6,0,75.2-33.6,75.2-75.2
			C364,245.2,356,226.8,343.2,214z M14.4,67.6h32v20c0,4.8,3.2,8,8,8s8-3.2,8-8v-20h42.4v20c0,4.8,3.2,8,8,8c4.8,0,8-3.2,8-8v-20
			h42.4v20c0,4.8,3.2,8,8,8s8-3.2,8-8v-20h42.4v20c0,4.8,3.2,8,8,8s8-3.2,8-8v-20H280v20c0,4.8,3.2,8,8,8s8-3.2,8-8v-20h30.4v39.2
			h-312V67.6z M218.4,288.4H16V122.8h312v77.6c-11.2-7.2-24.8-11.2-38.4-11.2c-41.6,0-75.2,33.6-75.2,75.2
			C214.4,272.4,216,281.2,218.4,288.4z M289.6,324.4c-32.8,0-59.2-26.4-59.2-59.2c0-32.8,26.4-59.2,59.2-59.2
			c32.8,0,59.2,26.4,59.2,59.2C348.8,298,322.4,324.4,289.6,324.4z"/>
	</g>
</g>
<g>
</g>
<g>
</g>
<g>
</g>
<g>
</g>
<g>
</g>
<g>
</g>
<g>
</g>
<g>
</g>
<g>
</g>
<g>
</g>
<g>
</g>
<g>
</g>
<g>
</g>
<g>
</g>
<g>
</g>
</svg>
