<?xml version="1.0"?>
<svg xmlns="http://www.w3.org/2000/svg" id="Layer_2" data-name="Layer 2" viewBox="0 0 128 128" width="512" height="512"><path d="M100.164,38.639V12.4h4.671a3.752,3.752,0,0,0,3.748-3.748v-4.9A3.753,3.753,0,0,0,104.835,0H23.165a3.753,3.753,0,0,0-3.748,3.748v4.9A3.752,3.752,0,0,0,23.165,12.4h4.671v26.24a11.7,11.7,0,0,0,4.13,8.929L51.288,64,31.966,80.432a11.7,11.7,0,0,0-4.13,8.929V115.6H23.165a3.752,3.752,0,0,0-3.748,3.748v4.9A3.753,3.753,0,0,0,23.165,128h81.67a3.753,3.753,0,0,0,3.748-3.748v-4.9a3.752,3.752,0,0,0-3.748-3.748h-4.671V89.361a11.7,11.7,0,0,0-4.131-8.929L76.709,64,96.033,47.568A11.7,11.7,0,0,0,100.164,38.639ZM22.917,8.651v-4.9a.248.248,0,0,1,.248-.248h81.67a.248.248,0,0,1,.248.248v4.9a.248.248,0,0,1-.248.248H23.165A.248.248,0,0,1,22.917,8.651Zm82.166,110.7v4.9a.248.248,0,0,1-.248.248H23.165a.248.248,0,0,1-.248-.248v-4.9a.248.248,0,0,1,.248-.248h81.67A.248.248,0,0,1,105.083,119.349ZM93.766,44.9,72.874,62.667a1.75,1.75,0,0,0,0,2.666L93.766,83.1a8.212,8.212,0,0,1,2.9,6.263V115.6H31.336V89.361a8.211,8.211,0,0,1,2.9-6.263l20.89-17.765a1.75,1.75,0,0,0,0-2.666L34.233,44.9a8.211,8.211,0,0,1-2.9-6.263V12.4H96.664v26.24A8.212,8.212,0,0,1,93.766,44.9Z" style="fill:rgb(0,0,0)"/><path d="M82.414,26.886H45.585a7.759,7.759,0,0,0-7.75,7.75v4a1.752,1.752,0,0,0,.616,1.333l20.8,17.684V93.6H45.586a7.759,7.759,0,0,0-7.75,7.75v6.017a1.749,1.749,0,0,0,1.75,1.75H88.414a1.749,1.749,0,0,0,1.75-1.75v-6.028A7.748,7.748,0,0,0,82.426,93.6H68.747V57.658l20.8-17.687a1.752,1.752,0,0,0,.616-1.333v-4A7.759,7.759,0,0,0,82.414,26.886Zm4.25,10.943-20.8,17.688a1.751,1.751,0,0,0-.616,1.333v38.5A1.749,1.749,0,0,0,67,97.1H82.426a4.243,4.243,0,0,1,4.238,4.239v4.278H41.336v-4.267a4.255,4.255,0,0,1,4.25-4.25H61a1.749,1.749,0,0,0,1.75-1.75V56.848a1.751,1.751,0,0,0-.616-1.333L41.335,37.83V34.637a4.256,4.256,0,0,1,4.25-4.251H82.414a4.254,4.254,0,0,1,4.25,4.25Z" style="fill:rgb(0,0,0)"/></svg>
